<?xml version="1.0" standalone="no"?>
<!DOCTYPE svg PUBLIC "-//W3C//DTD SVG 20010904//EN"
 "http://www.w3.org/TR/2001/REC-SVG-20010904/DTD/svg10.dtd">
<svg version="1.0" xmlns="http://www.w3.org/2000/svg"
 width="3264.000000pt" height="3264.000000pt" viewBox="0 0 3264.000000 3264.000000"
 preserveAspectRatio="xMidYMid meet">

<g transform="translate(0.000000,3264.000000) scale(0.100000,-0.100000)"
fill="#000000" stroke="none">
<path d="M5033 23764 c-8 -22 3 -140 21 -210 8 -32 19 -112 25 -176 6 -65 15
-126 20 -137 6 -11 16 -75 21 -143 6 -67 18 -147 26 -177 8 -29 19 -102 24
-161 5 -59 15 -134 24 -166 8 -32 20 -112 26 -176 5 -65 15 -129 20 -143 6
-15 17 -88 25 -164 7 -75 19 -149 25 -165 5 -15 15 -80 20 -144 6 -63 17 -141
25 -172 8 -31 19 -108 25 -171 5 -63 16 -134 24 -159 7 -25 17 -88 21 -140 3
-52 15 -131 25 -175 10 -44 21 -121 24 -172 4 -50 13 -113 21 -140 8 -27 19
-102 25 -168 6 -66 17 -141 25 -167 8 -27 17 -87 20 -136 3 -48 14 -127 25
-177 10 -49 23 -141 29 -202 6 -62 15 -122 21 -132 5 -11 15 -75 20 -143 6
-68 17 -145 25 -173 8 -27 19 -102 24 -165 6 -63 15 -131 21 -150 6 -19 18
-97 25 -173 8 -76 19 -146 25 -157 5 -10 15 -74 20 -142 6 -68 17 -146 25
-174 8 -28 19 -100 24 -161 10 -111 36 -238 54 -260 15 -20 860 -19 876 1 6 8
16 60 21 117 5 57 16 124 23 149 8 25 18 90 21 145 4 55 14 123 22 150 8 28
19 104 25 170 5 66 16 138 24 160 7 22 18 96 24 165 6 69 17 145 25 170 8 26
17 91 21 145 4 55 15 134 25 175 10 41 21 118 24 172 4 53 13 115 21 138 8 23
19 96 25 163 5 67 16 143 24 168 8 26 17 89 21 140 4 52 15 128 25 169 10 41
21 119 25 173 3 54 13 119 21 145 8 26 19 100 24 165 5 65 17 142 25 170 8 29
19 104 25 167 5 63 16 135 23 160 8 25 18 92 22 150 4 58 14 125 21 150 8 25
19 99 25 165 5 66 17 143 24 170 8 28 19 104 25 170 5 66 16 138 24 160 8 22
17 85 21 140 4 55 15 136 25 180 10 44 21 121 24 172 4 51 13 114 21 140 8 26
20 102 25 168 6 66 17 140 25 165 8 25 19 99 24 165 6 66 15 135 22 154 11 30
10 36 -6 48 -16 11 -240 13 -1287 13 -1147 0 -1269 -2 -1275 -16z"/>
<path d="M24987 23768 c-14 -11 -15 -19 -7 -48 6 -19 15 -86 20 -149 6 -63 17
-137 25 -165 8 -28 19 -103 24 -166 5 -64 15 -128 20 -143 6 -16 18 -90 26
-166 7 -75 18 -149 24 -163 5 -14 15 -82 21 -150 6 -67 18 -145 25 -173 8 -27
19 -103 25 -169 6 -65 16 -130 21 -144 6 -14 17 -88 24 -163 8 -76 19 -149 25
-163 5 -15 15 -79 20 -144 6 -64 18 -140 25 -168 8 -28 19 -101 24 -162 6 -61
17 -137 25 -169 8 -32 20 -111 26 -175 5 -65 15 -129 20 -144 6 -15 17 -88 25
-164 8 -76 19 -149 25 -164 5 -15 15 -79 20 -144 6 -64 17 -139 25 -167 7 -27
18 -99 24 -160 5 -60 17 -139 25 -175 8 -36 20 -116 26 -178 6 -62 15 -124 21
-139 5 -15 14 -77 20 -137 5 -61 16 -137 24 -169 8 -31 19 -108 25 -170 6 -61
17 -137 25 -167 8 -30 19 -108 25 -172 5 -65 15 -129 20 -144 6 -15 17 -88 25
-164 8 -76 19 -149 25 -164 5 -15 15 -79 21 -144 6 -64 15 -121 20 -127 15
-15 847 -19 865 -4 7 6 16 27 20 48 3 20 10 49 15 64 5 16 14 79 19 140 6 62
18 137 25 167 8 30 19 107 25 170 6 63 17 140 25 170 7 30 18 107 24 171 6 64
16 129 21 145 5 16 16 90 24 164 8 74 20 151 26 170 5 19 15 85 20 145 6 61
17 137 25 170 7 33 19 114 25 179 6 65 16 130 21 144 5 13 16 86 24 161 8 75
19 151 25 170 5 19 14 82 20 140 6 58 17 133 25 166 7 33 19 114 25 179 6 65
16 130 21 144 6 15 17 89 25 167 8 77 19 153 24 168 5 16 15 79 20 140 6 62
18 139 25 173 8 34 19 110 25 170 6 60 17 134 25 164 7 30 17 93 20 140 4 47
14 117 22 155 8 39 21 129 29 200 8 72 19 144 24 160 5 17 14 79 20 139 6 61
17 139 25 176 8 36 18 111 24 166 6 55 17 129 25 165 8 35 17 98 20 139 4 41
16 123 27 183 11 59 19 119 17 135 l-3 27 -390 5 c-214 3 -784 6 -1265 8 -692
2 -879 0 -893 -10z"/>
<path d="M10010 22977 c-33 -17 -36 -40 -30 -218 6 -186 13 -198 116 -216 157
-27 272 -52 314 -66 25 -8 91 -17 147 -21 56 -4 124 -13 150 -20 26 -8 77 -19
113 -26 36 -7 84 -18 107 -26 23 -7 79 -16 125 -19 46 -4 112 -15 148 -25 36
-10 90 -23 120 -30 30 -7 62 -16 71 -21 9 -5 61 -14 115 -20 55 -6 110 -17
124 -24 14 -7 59 -18 100 -26 41 -7 84 -18 95 -25 11 -7 43 -15 70 -19 28 -4
61 -15 75 -24 14 -10 37 -22 50 -26 14 -4 36 -16 49 -26 13 -11 30 -19 38 -19
8 0 28 -10 43 -22 16 -13 47 -34 70 -48 24 -14 53 -42 66 -62 13 -20 36 -51
52 -70 16 -18 43 -64 61 -103 18 -38 39 -81 46 -95 7 -14 18 -73 25 -130 6
-58 17 -134 25 -170 8 -36 19 -123 25 -194 13 -167 14 -10627 0 -10801 -5 -66
-16 -147 -24 -180 -9 -33 -20 -100 -25 -150 -9 -78 -17 -103 -60 -188 -46 -91
-136 -217 -154 -217 -5 0 -34 -19 -65 -43 -31 -24 -77 -49 -102 -56 -25 -7
-49 -17 -55 -21 -5 -4 -34 -15 -62 -24 -29 -10 -55 -21 -58 -26 -3 -4 -29 -11
-58 -15 -28 -4 -105 -24 -170 -46 -64 -22 -152 -44 -195 -50 -42 -5 -102 -18
-132 -29 -30 -10 -73 -21 -95 -25 -22 -4 -58 -13 -80 -20 -22 -7 -85 -16 -140
-20 -55 -4 -127 -16 -160 -26 -33 -10 -91 -23 -130 -29 -38 -6 -83 -15 -100
-20 -16 -5 -77 -14 -135 -19 -58 -6 -124 -17 -148 -25 -24 -9 -82 -20 -130
-26 -147 -18 -232 -51 -232 -90 0 -9 -6 -22 -12 -28 -9 -9 -14 -56 -16 -141
-4 -121 -2 -131 20 -172 l25 -44 74 -8 c41 -4 1682 -6 3647 -5 l3574 3 25 29
c25 29 25 30 21 201 -2 122 -7 176 -16 188 -19 22 -132 54 -238 66 -51 6 -112
18 -135 27 -24 8 -93 20 -154 25 -60 6 -135 17 -165 25 -30 8 -66 14 -80 14
-14 0 -59 9 -100 21 -41 11 -131 27 -200 34 -114 13 -237 38 -380 79 -30 9
-72 16 -93 16 -22 0 -99 20 -171 44 -72 24 -151 47 -176 50 -25 4 -58 13 -75
20 -100 47 -145 66 -182 75 -23 6 -43 15 -45 19 -2 4 -30 25 -63 47 -70 46
-99 75 -139 136 -16 24 -38 57 -48 72 -19 28 -48 121 -72 232 -7 33 -21 85
-32 115 -19 54 -19 169 -19 6118 l0 6064 24 19 c22 18 50 19 785 19 483 0 793
-4 846 -11 47 -6 245 -16 440 -23 196 -7 361 -16 368 -20 28 -17 253 -67 342
-76 52 -6 120 -19 151 -29 31 -11 80 -23 110 -27 30 -4 63 -13 74 -20 11 -7
38 -16 60 -19 22 -4 49 -13 60 -20 31 -19 166 -71 204 -79 19 -3 42 -13 50
-20 9 -8 36 -19 61 -26 24 -7 53 -18 64 -26 11 -8 29 -14 40 -14 11 0 38 -11
60 -24 23 -13 55 -26 72 -29 30 -6 82 -35 129 -72 11 -9 30 -21 42 -28 21 -11
48 -29 188 -124 30 -21 70 -47 88 -58 105 -63 150 -100 296 -245 101 -100 191
-198 191 -207 0 -3 20 -28 44 -57 25 -28 50 -63 56 -76 5 -14 25 -45 44 -70
19 -25 51 -78 71 -117 20 -40 40 -75 45 -78 5 -3 14 -22 20 -43 13 -41 71
-164 81 -172 4 -3 12 -25 19 -49 6 -24 20 -60 31 -80 10 -20 19 -45 19 -56 0
-11 9 -38 19 -61 10 -23 22 -61 26 -85 4 -24 14 -55 22 -68 8 -13 21 -64 30
-114 8 -50 18 -97 22 -106 5 -9 12 -43 16 -76 4 -33 16 -85 26 -115 21 -57 26
-117 50 -590 17 -344 -11 -1076 -46 -1170 -9 -25 -23 -88 -31 -140 -23 -153
-49 -273 -67 -306 -9 -18 -19 -51 -23 -75 -4 -24 -15 -61 -25 -81 -11 -21 -19
-45 -19 -55 0 -10 -12 -40 -25 -68 -14 -27 -25 -57 -25 -66 0 -17 -47 -111
-75 -151 -8 -13 -15 -29 -15 -38 0 -15 -3 -21 -54 -115 -16 -27 -34 -66 -41
-85 -17 -47 -139 -231 -205 -309 -45 -52 -80 -101 -80 -110 0 -6 -70 -79 -155
-163 -151 -150 -168 -165 -250 -227 -61 -46 -77 -58 -119 -91 -21 -16 -42 -30
-46 -30 -4 0 -18 -10 -32 -23 -43 -38 -62 -51 -98 -69 -19 -10 -75 -40 -125
-67 -103 -57 -231 -121 -241 -121 -4 0 -15 -7 -25 -16 -9 -8 -40 -21 -69 -29
-28 -7 -56 -18 -63 -23 -7 -5 -28 -13 -47 -17 -19 -4 -55 -18 -80 -31 -25 -13
-58 -24 -75 -24 -17 0 -46 -8 -65 -19 -19 -10 -51 -22 -70 -26 -19 -4 -45 -13
-57 -21 -13 -8 -57 -21 -99 -29 -42 -8 -81 -19 -88 -23 -6 -5 -36 -15 -66 -22
-30 -7 -66 -18 -81 -26 -14 -7 -76 -17 -138 -23 -61 -6 -116 -13 -121 -16 -4
-3 -68 -19 -141 -35 -106 -24 -170 -32 -317 -39 l-184 -8 -29 -30 c-63 -62
-46 -143 33 -163 24 -6 77 -19 118 -30 158 -41 219 -52 335 -61 66 -5 165 -16
220 -24 280 -39 529 -42 775 -10 161 22 315 34 455 35 66 0 138 5 160 9 80 17
171 43 215 60 25 10 76 21 114 25 38 4 83 13 101 21 18 7 59 19 92 25 32 7 67
18 78 25 11 7 50 16 85 19 72 8 212 47 276 77 23 10 52 19 65 19 13 0 47 11
74 25 28 13 55 25 60 25 6 0 26 8 45 19 19 10 50 22 69 26 19 4 53 17 76 30
23 12 51 25 61 29 11 3 30 13 44 21 14 8 38 15 53 15 15 0 49 11 75 25 26 14
54 25 63 25 8 0 24 7 35 15 10 8 37 24 59 35 22 11 49 25 60 32 11 7 38 24 60
37 22 14 49 33 60 42 11 9 47 31 80 48 32 18 66 38 75 46 8 7 27 16 42 20 14
4 34 15 44 26 9 10 23 19 30 19 7 0 25 11 41 24 15 13 39 27 53 31 14 4 34 15
45 24 28 24 100 71 108 71 23 0 351 287 494 432 196 199 398 439 457 543 9 17
30 48 47 70 16 22 36 55 44 72 7 18 19 38 25 45 23 27 70 104 70 114 0 6 9 19
20 29 11 10 20 23 20 28 0 15 61 138 82 166 10 13 18 30 18 39 0 8 8 33 19 56
44 97 64 155 73 210 6 33 16 69 23 80 7 12 16 37 20 56 4 19 15 53 25 75 11
24 21 79 25 130 4 50 13 117 22 150 50 205 64 332 65 615 1 169 -3 269 -15
355 -9 66 -21 163 -27 215 -6 52 -17 115 -24 140 -8 25 -17 77 -21 115 -3 39
-14 95 -25 125 -10 30 -25 82 -33 115 -8 33 -20 80 -27 105 -10 42 -36 102
-81 192 -11 20 -19 46 -19 56 0 11 -9 30 -19 44 -11 13 -23 38 -27 54 -7 30
-48 128 -65 154 -5 8 -17 31 -26 50 -10 19 -37 61 -60 93 -24 31 -43 61 -43
66 0 4 -9 16 -20 26 -11 10 -20 22 -20 27 0 6 -9 22 -21 36 -11 15 -38 54 -60
87 -76 117 -87 132 -116 161 -16 16 -34 37 -39 46 -8 15 -125 142 -306 333
-37 38 -92 90 -123 115 -30 25 -77 64 -103 88 -26 23 -51 42 -57 42 -5 0 -30
21 -54 45 -25 25 -48 45 -52 45 -4 0 -34 23 -67 50 -33 28 -63 50 -67 50 -3 0
-21 11 -39 25 -18 14 -36 25 -40 25 -4 0 -20 9 -36 20 -17 11 -43 29 -59 40
-16 10 -60 35 -97 55 -38 20 -76 42 -84 49 -8 7 -46 31 -83 52 -37 21 -89 51
-115 66 -26 15 -54 30 -62 34 -109 49 -151 69 -181 85 -20 10 -43 19 -52 19
-8 0 -26 9 -41 21 -14 11 -38 24 -53 29 -44 14 -136 54 -163 72 -14 9 -42 19
-62 22 -21 4 -63 18 -95 32 -32 14 -71 32 -88 39 -16 7 -50 16 -75 20 -25 4
-59 16 -76 26 -17 10 -38 19 -46 19 -7 0 -32 9 -53 21 -22 11 -63 24 -91 30
-28 5 -68 18 -89 29 -22 11 -44 20 -51 20 -6 0 -38 8 -70 19 -33 10 -94 21
-136 25 -43 4 -94 14 -115 23 -21 8 -74 21 -118 29 -44 7 -111 20 -150 28 -38
9 -81 16 -95 16 -14 0 -51 9 -83 20 -33 12 -106 24 -177 30 -65 5 -158 17
-206 25 -48 8 -106 15 -129 15 -23 0 -77 9 -121 21 -59 16 -129 23 -279 29
-110 5 -1838 9 -3840 9 -2912 1 -3645 -2 -3665 -12z"/>
</g>
</svg>
